<?xml version="1.0" standalone="no"?>
<!DOCTYPE svg PUBLIC "-//W3C//DTD SVG 20010904//EN"
 "http://www.w3.org/TR/2001/REC-SVG-20010904/DTD/svg10.dtd">
<svg version="1.0" xmlns="http://www.w3.org/2000/svg"
 width="350.000000pt" height="350.000000pt" viewBox="0 0 350.000000 350.000000"
 preserveAspectRatio="xMidYMid meet">
<metadata>
Created by potrace 1.14, written by Peter Selinger 2001-2017
</metadata>
<g transform="translate(0.000000,350.000000) scale(0.100000,-0.100000)"
fill="#000000" stroke="none">
<path d="M884 3107 c-23 -20 -27 -32 -28 -83 l-2 -59 -79 -2 c-47 -1 -95 -8
-118 -17 -49 -22 -109 -80 -138 -136 l-24 -45 0 -975 c0 -935 1 -978 19 -1038
22 -70 87 -149 159 -192 21 -12 71 -55 110 -94 40 -39 94 -82 120 -95 103 -50
124 -51 781 -50 338 0 638 5 671 10 86 14 194 68 248 124 50 51 97 135 97 171
0 33 14 38 120 40 119 3 174 25 241 95 106 112 130 317 70 601 -33 158 -98
316 -182 442 -21 32 -39 61 -39 64 0 9 -113 135 -164 183 l-49 46 -2 239 c-2
269 -2 269 -80 348 -25 26 -45 50 -45 55 0 28 -70 75 -99 66 -14 -4 -28 6 -55
43 -64 88 -137 120 -263 117 -53 -2 -53 -2 -54 29 -1 17 -1 37 1 45 3 26 -21
68 -46 80 -36 16 -48 14 -78 -14 -22 -20 -26 -32 -26 -80 0 -30 -3 -56 -7 -56
-5 -1 -54 -3 -110 -4 l-103 -1 0 63 c0 61 -1 64 -32 83 -65 40 -118 4 -121
-83 -1 -32 -6 -58 -12 -58 -5 -1 -49 -3 -97 -4 -84 -3 -88 -2 -89 18 -2 96
-19 130 -70 142 -19 5 -33 0 -54 -18 -25 -21 -29 -31 -28 -80 0 -33 -4 -57
-11 -60 -6 -2 -56 -3 -110 -3 l-100 1 0 58 c-1 52 -4 62 -29 83 -35 30 -59 30
-93 1z m2000 -1745 c-17 -26 -51 -27 -65 -1 -10 20 -9 25 11 41 23 19 24 19
44 -2 16 -16 18 -24 10 -38z"/>
</g>
</svg>
